<svg width="54" height="75" viewBox="0 0 54 75" fill="none" xmlns="http://www.w3.org/2000/svg">
<path d="M22.4453 28.1175L13.0482 23.9808C11.722 13.7502 12.719 8.4505 18.495 0C15.4361 8.06008 14.84 12.9075 15.9212 22.1823L23.1636 27.6379L23.822 26.4988L22.0862 24.4005C21.342 23.4563 25.878 20.1986 24.7797 21.8825C23.6813 23.5664 22.2882 24.2799 24.7797 25.8993H27.7724L29.4483 24.4005L28.3709 21.8825C30.0514 22.7953 30.4374 23.3673 31.0045 24.4005L28.9096 26.4988L29.9271 27.6379L36.9899 22.1823C38.3312 13.1777 37.5167 8.35983 34.4761 0C40.1518 9.27905 41.5157 14.5256 39.9228 23.9808L30.3461 28.1175L30.6454 29.3165C41.4674 28.0377 44.5446 27.8139 45.2427 27.9783C45.8558 22.7013 45.4451 19.4747 44.1126 13.729C47.9511 19.6295 49.5508 23.1438 48.0031 31.0552L30.6454 29.976L30.3461 31.0552C41.2491 31.7221 45.3077 33.3217 53.39 35.6715C51.1128 52.4195 47.5992 61.4459 35.6731 74.1607C44.1647 61.1305 46.4229 53.0687 48.0031 37.9496L29.9271 31.5947V32.4341L44.6513 39.8681C44.102 51.2874 42.3469 57.2221 36.9899 67.0863C40.0286 57.588 41.3192 52.0607 41.2994 41.0671L29.4483 33.0935V33.753L35.2542 37.9496L34.895 46.5827C32.3934 50.524 30.6362 52.5188 26.5753 55.5156C22.0061 52.536 19.9031 50.6551 17.7169 46.5827V38.2494L23.822 33.753L23.1636 33.0935L11.5519 40.5276C11.421 51.0894 12.6571 57.0091 16.4001 67.5659C10.3049 57.789 8.83493 51.5903 8.02047 39.8681L22.8943 32.4341L22.6548 31.5947L4.9679 37.53C5.95221 53.3294 8.93143 61.479 17.7169 75C4.94401 61.2265 1.68428 52.4476 0 35.6715C11.1893 32.1458 16.2307 30.9784 21.9366 31.0552V30.1859L5.11754 31.0552C3.77207 23.5041 4.75616 19.7502 8.73872 13.6691C7.30476 19.3308 6.97779 22.4953 7.48178 28.1175L21.9366 28.8369L22.4453 28.1175Z" fill="#F1F1F1"/>
</svg>
